<?xml version="1.0" encoding="UTF-8"?>
<!DOCTYPE svg PUBLIC "-//W3C//DTD SVG 1.1//EN" "http://www.w3.org/Graphics/SVG/1.1/DTD/svg11.dtd">
<!-- Creator: CorelDRAW 2019 (64-Bit) -->
<svg xmlns="http://www.w3.org/2000/svg" xml:space="preserve" width="10%" height="10%" version="1.1" style="shape-rendering:geometricPrecision; text-rendering:geometricPrecision; image-rendering:optimizeQuality; fill-rule:evenodd; clip-rule:evenodd"
viewBox="0 0 576.61 575.21"
 xmlns:xlink="http://www.w3.org/1999/xlink"
 xmlns:xodm="http://www.corel.com/coreldraw/odm/2003">
 <defs>
  <style type="text/css">
   <![CDATA[
    .str0 {stroke:white;stroke-width:42.33;stroke-miterlimit:22.9256}
    .fil0 {fill:none}
    .fil1 {fill:white;fill-rule:nonzero}
   ]]>
  </style>
 </defs>
 <g id="Capa_x0020_1">
  <metadata id="CorelCorpID_0Corel-Layer"/>
  <rect class="fil0 str0" x="21.17" y="21.17" width="534.27" height="532.87" rx="290.78" ry="342.75"/>
  <path class="fil1" d="M199.78 278.9l50.95 0 0 -26.25c0,-29.27 3.13,-51.17 9.39,-65.58 6.26,-14.53 17.77,-26.26 34.52,-35.31 16.87,-9.05 38.1,-13.63 63.8,-13.63 26.26,0 52.07,3.91 77.32,11.73l-11.73 63.91c-14.97,-3.46 -29.38,-5.25 -43.24,-5.25 -13.63,0 -23.35,3.13 -29.27,9.39 -5.92,6.26 -8.94,18.32 -8.94,36.2l0 24.8 69.05 0 0 72.4 -69.05 0 0 202.74 -91.84 0 0 -202.74 -50.95 0 0 -72.4z"/>
 </g>
</svg>
