<?xml version="1.0" encoding="UTF-8"?>
<!DOCTYPE svg PUBLIC "-//W3C//DTD SVG 1.1//EN" "http://www.w3.org/Graphics/SVG/1.1/DTD/svg11.dtd">
<!-- Creator: CorelDRAW 2019 (64-Bit) -->
<svg xmlns="http://www.w3.org/2000/svg" xml:space="preserve" width="10%" height="10%" version="1.1" style="shape-rendering:geometricPrecision; text-rendering:geometricPrecision; image-rendering:optimizeQuality; fill-rule:evenodd; clip-rule:evenodd"
viewBox="0 0 597.42 601.67"
 xmlns:xlink="http://www.w3.org/1999/xlink"
 xmlns:xodm="http://www.corel.com/coreldraw/odm/2003">
 <defs>
  <style type="text/css">
   <![CDATA[
    .fil0 {fill:white}
   ]]>
  </style>
 </defs>
 <g id="Capa_x0020_1">
  <metadata id="CorelCorpID_0Corel-Layer"/>
  <path class="fil0" d="M298.71 0c164.97,0 298.71,133.74 298.71,298.71 0,164.97 -133.74,298.71 -298.71,298.71 -57.68,0 -111.54,-16.37 -157.2,-44.69l-120.42 48.94 33.99 -130.08c-34.68,-48.79 -55.08,-108.45 -55.08,-172.88 0,-164.97 133.74,-298.71 298.71,-298.71zm0 49.78c137.48,0 248.93,111.45 248.93,248.93 0,137.48 -111.45,248.94 -248.93,248.94 -49.95,0 -96.45,-14.72 -135.42,-40.04l-93.29 37.91 26.54 -101.56c-29.42,-40.88 -46.76,-91.04 -46.76,-145.25 0,-137.48 111.45,-248.93 248.94,-248.93z"/>
  <path class="fil0" d="M224.12 148.41c-49.64,-18.46 -81.03,19.66 -82.27,82.27 7.23,77.47 73.76,143.19 147.32,187.5 43.04,26.7 88.96,40.61 143.49,16.26 17.84,-16.29 28.88,-45.97 20.57,-60.51 -19.09,-18.83 -38.73,-26.58 -64.29,-35.03 -6.5,-2.14 -15.4,-4.86 -23.89,4.66 -9.81,10.09 -14.45,14.44 -27.1,28.7 -46.67,-20.85 -88.23,-50.87 -115.75,-106.18 17.74,-7.76 25.63,-22.06 25.83,-50.7 0.2,-28.64 -11.42,-48.35 -23.92,-66.96z"/>
 </g>
</svg>
